<svg width="80" height="32" fill="none" xmlns="http://www.w3.org/2000/svg"><path d="M39.833 12.418h7.005v7.005h-7.005v-7.005z" fill="#49C5B6"/><path d="M16.485 0C7.28 0 0 6.904 0 16.063c0 9.158 7.28 15.78 16.485 15.78 6.059 0 10.944-2.676 13.715-7.42l-4.838-3.382c-2.067 3.335-4.932 5.214-8.877 5.214-5.73 0-9.957-4.18-9.957-10.145 0-6.012 4.227-10.239 9.957-10.239 3.945 0 6.81 1.879 8.877 5.213L30.2 7.703C27.428 2.959 22.544 0 16.485 0zm36.004 0v31.842h9.95C72.565 31.842 80 24.98 80 15.666 80 6.256 72.98 0 62.853 0H52.49zm10.317 5.827c6.352 0 10.603 3.63 10.603 9.84 0 6.065-4.251 10.03-10.604 10.03h-3.868V5.826h3.869z" fill="#000"/><path d="M52.489.038H33.384v31.804h6.4l.048-12.269V5.866h12.657V.037z" fill="#000"/></svg>