<svg width="22" height="22" fill="none" xmlns="http://www.w3.org/2000/svg"><g clip-path="url(#clip0)"><path d="M21.367 13.47C22.96 6.536 16.687.236 9.322 1.446 5.324-.958 0 1.758 0 6.366c0 1.072.305 2.075.836 2.94-1.48 6.95 4.843 13.16 12.202 11.867 5.202 2.665 10.95-2.65 8.329-7.703zm-7.002 4.182c-1.932.77-5.112.774-7.036-.202-2.744-1.417-3.231-4.607-.865-4.607 1.784 0 1.22 2.015 3.02 2.836.828.37 2.605.408 3.638-.266 1.02-.662.927-1.702.372-2.2-1.47-1.314-5.674-.792-7.596-3.092-.835-.998-.993-2.759.034-4.035 1.79-2.23 7.04-2.367 9.297-.682 2.085 1.562 1.522 3.636-.16 3.636-2.023 0-.96-2.564-4.226-2.564-2.367 0-3.299 1.631-1.631 2.425 2.26 1.088 8.02.725 8.02 4.975-.004 1.768-1.123 3.087-2.867 3.776z" fill="#000"/></g><defs><clipPath id="clip0"><path fill="#fff" transform="translate(0 .553)" d="M0 0h22v21.309H0z"/></clipPath></defs></svg>