<svg width="23" height="23" viewBox="0 0 23 23" fill="none" xmlns="http://www.w3.org/2000/svg">
<g clip-path="url(#clip0)">
<path d="M15.3309 4.28374H17.4307V0.741589C17.0684 0.69332 15.8226 0.584717 14.3716 0.584717C11.3443 0.584717 9.27044 2.42912 9.27044 5.81904V8.93885H5.92969V12.8987H9.27044V22.8624H13.3664V12.8996H16.572L17.0809 8.93978H13.3654V6.21169C13.3664 5.06717 13.6845 4.28374 15.3309 4.28374Z" fill="black"/>
<path d="M15.3309 4.66777H17.4307V1.12562C17.0684 1.07735 15.8226 0.96875 14.3716 0.96875C11.3443 0.96875 9.27044 2.81316 9.27044 6.20308V9.32288H5.92969V13.2827H9.27044V23.2464H13.3664V13.2837H16.572L17.0809 9.32381H13.3654V6.59572C13.3664 5.4512 13.6845 4.66777 15.3309 4.66777Z" fill="black"/>
<path d="M15.3309 4.66777H17.4307V1.12562C17.0684 1.07735 15.8226 0.96875 14.3716 0.96875C11.3443 0.96875 9.27044 2.81316 9.27044 6.20308V9.32288H5.92969V13.2827H9.27044V23.2464H13.3664V13.2837H16.572L17.0809 9.32381H13.3654V6.59572C13.3664 5.4512 13.6845 4.66777 15.3309 4.66777Z" fill="black"/>
<path d="M15.3309 4.66777H17.4307V1.12562C17.0684 1.07735 15.8226 0.96875 14.3716 0.96875C11.3443 0.96875 9.27044 2.81316 9.27044 6.20308V9.32288H5.92969V13.2827H9.27044V23.2464H13.3664V13.2837H16.572L17.0809 9.32381H13.3654V6.59572C13.3664 5.4512 13.6845 4.66777 15.3309 4.66777Z" fill="black"/>
<path d="M15.3309 4.66777H17.4307V1.12562C17.0684 1.07735 15.8226 0.96875 14.3716 0.96875C11.3443 0.96875 9.27044 2.81316 9.27044 6.20308V9.32288H5.92969V13.2827H9.27044V23.2464H13.3664V13.2837H16.572L17.0809 9.32381H13.3654V6.59572C13.3664 5.4512 13.6845 4.66777 15.3309 4.66777Z" fill="black"/>
</g>
<defs>
<clipPath id="clip0">
<rect width="23" height="22.2777" fill="white" transform="translate(0 0.584717)"/>
</clipPath>
</defs>
</svg>
