<svg width="21" height="21" viewBox="0 0 21 21" fill="none" xmlns="http://www.w3.org/2000/svg">
<g clip-path="url(#clip0)">
<path d="M20.8313 8.55635C20.9247 8.55635 21.0004 8.63202 21.0004 8.72538V10.5C21.0004 11.1642 20.9387 11.8136 20.8203 12.4436C19.905 17.3372 15.5938 21.0354 10.4263 20.9997C4.62798 20.9598 -0.0124451 16.2748 0.000392784 10.4763C0.0131486 4.68833 4.70936 0 10.5004 0C13.3375 0 15.9118 1.12555 17.8017 2.95386C17.87 3.01986 17.8717 3.12863 17.8046 3.19573L15.294 5.70634C15.2293 5.77098 15.1249 5.77266 15.0587 5.70962C13.8725 4.5805 12.2675 3.8873 10.5004 3.8873C6.85115 3.8873 3.91259 6.80498 3.88781 10.4541C3.86292 14.1272 6.83311 17.1127 10.5004 17.1127C13.4758 17.1127 15.9925 15.147 16.8223 12.4436H10.6694C10.576 12.4436 10.5004 12.368 10.5004 12.2746V8.72534C10.5004 8.63198 10.576 8.55631 10.6694 8.55631H20.8313V8.55635Z" fill="#2196F3"/>
<path d="M20.831 8.5564H19.5634C19.6567 8.5564 19.7324 8.63207 19.7324 8.72542V10.5C19.7324 11.1643 19.6707 11.8137 19.5524 12.4437C18.6791 17.1122 14.7152 20.6926 9.86554 20.9811C10.0511 20.992 10.2379 20.9984 10.426 20.9998C15.5935 21.0354 19.9046 17.3372 20.82 12.4437C20.9383 11.8137 21 11.1643 21 10.5V8.72538C21 8.63207 20.9243 8.5564 20.831 8.5564Z" fill="#1E88E5"/>
<path d="M4.49363 7.73071L1.30475 5.42661C3.09377 2.19085 6.54121 0 10.5 0C13.3371 0 15.9114 1.12555 17.8013 2.95386C17.8696 3.01986 17.8713 3.12863 17.8042 3.19573L15.2936 5.70634C15.2291 5.77086 15.1246 5.77287 15.0586 5.70995C13.8723 4.58063 12.2673 3.88734 10.5 3.88734C7.83673 3.88734 5.54109 5.46168 4.49363 7.73071Z" fill="#F44336"/>
<path d="M3.57306 7.06567L4.49365 7.73082C5.44973 5.65978 7.44588 4.1682 9.81207 3.92354C9.82987 3.92162 9.84697 3.91928 9.8651 3.91756C9.65687 3.89779 9.44584 3.88745 9.2324 3.88745C6.82654 3.88745 4.72982 5.15578 3.57306 7.06567Z" fill="#E53935"/>
<path d="M16.5338 2.95386C16.6021 3.01986 16.6038 3.12863 16.5367 3.19577L14.4989 5.23355C14.6941 5.38203 14.881 5.54084 15.0584 5.70966C15.1246 5.7727 15.229 5.77102 15.2937 5.70638L17.8043 3.19577C17.8714 3.12863 17.8696 3.0199 17.8014 2.95386C15.9114 1.12555 13.3372 0 10.5 0C10.2871 0 10.0759 0.0070957 9.86615 0.0196055C12.4518 0.173619 14.7856 1.26271 16.5338 2.95386Z" fill="#E53935"/>
<path d="M18.2025 17.6358C16.285 19.705 13.5436 21 10.5001 21C6.38926 21 2.83025 18.6377 1.10669 15.1961L4.3623 12.9651C5.33926 15.396 7.71939 17.1127 10.5001 17.1127C12.2451 17.1127 13.8322 16.4367 15.0136 15.3321L18.2025 17.6358Z" fill="#4CAF50"/>
<path d="M4.36211 12.9651L3.4021 13.6229C4.51711 15.7001 6.70976 17.1127 9.23227 17.1127C9.44559 17.1127 9.65645 17.1022 9.8646 17.0825C7.36064 16.8438 5.26372 15.2086 4.36211 12.9651Z" fill="#43A047"/>
<path d="M10.5 21C13.5435 21 16.2849 19.7049 18.2024 17.6358L17.4214 17.0715C15.6209 19.3122 12.9201 20.7987 9.8678 20.9809C10.077 20.9934 10.2877 21 10.5 21Z" fill="#43A047"/>
<path d="M3.88734 10.4999C3.88734 11.3712 4.05591 12.2032 4.36226 12.965L1.1066 15.1959C0.398467 13.783 0 12.1879 0 10.4999C0 8.65978 0.473238 6.93031 1.30479 5.42651L4.49367 7.73061C4.10452 8.5727 3.88734 9.51118 3.88734 10.4999Z" fill="#FFC107"/>
<path d="M3.40216 13.6228L4.36217 12.965C4.05582 12.2031 3.88725 11.3711 3.88725 10.4999C3.88725 9.51115 4.10443 8.57267 4.49358 7.73058L3.57299 7.06543C2.97519 8.05247 2.62823 9.21071 2.61979 10.454C2.61199 11.6006 2.89611 12.6801 3.40216 13.6228Z" fill="#FFB300"/>
</g>
<defs>
<clipPath id="clip0">
<rect width="21" height="21" fill="white"/>
</clipPath>
</defs>
</svg>
