<svg width="23" height="23" fill="none" xmlns="http://www.w3.org/2000/svg"><g clip-path="url(#clip0)" fill="#000"><path d="M15.33 4.284h2.1V.742c-.362-.049-1.607-.157-3.058-.157-3.028 0-5.102 1.844-5.102 5.234v3.12H5.93v3.96h3.34v9.963h4.096V12.9h3.206l.509-3.96h-3.716V6.212c.001-1.145.32-1.928 1.966-1.928z"/><path d="M15.33 4.668h2.1V1.126c-.362-.049-1.607-.157-3.058-.157-3.028 0-5.102 1.844-5.102 5.234v3.12H5.93v3.96h3.34v9.963h4.096v-9.962h3.206l.509-3.96h-3.716V6.596c.001-1.145.32-1.928 1.966-1.928z"/><path d="M15.33 4.668h2.1V1.126c-.362-.049-1.607-.157-3.058-.157-3.028 0-5.102 1.844-5.102 5.234v3.12H5.93v3.96h3.34v9.963h4.096v-9.962h3.206l.509-3.96h-3.716V6.596c.001-1.145.32-1.928 1.966-1.928z"/><path d="M15.33 4.668h2.1V1.126c-.362-.049-1.607-.157-3.058-.157-3.028 0-5.102 1.844-5.102 5.234v3.12H5.93v3.96h3.34v9.963h4.096v-9.962h3.206l.509-3.96h-3.716V6.596c.001-1.145.32-1.928 1.966-1.928z"/><path d="M15.33 4.668h2.1V1.126c-.362-.049-1.607-.157-3.058-.157-3.028 0-5.102 1.844-5.102 5.234v3.12H5.93v3.96h3.34v9.963h4.096v-9.962h3.206l.509-3.96h-3.716V6.596c.001-1.145.32-1.928 1.966-1.928z"/></g><defs><clipPath id="clip0"><path fill="#fff" transform="translate(0 .585)" d="M0 0h23v22.278H0z"/></clipPath></defs></svg>