<svg width="21" height="21" fill="none" xmlns="http://www.w3.org/2000/svg"><g clip-path="url(#clip0)"><path d="M20.831 8.556a.17.17 0 01.17.17V10.5c0 .664-.062 1.314-.18 1.944-.916 4.893-5.227 8.591-10.395 8.556A10.475 10.475 0 010 10.476C.013 4.688 4.71 0 10.5 0a10.47 10.47 0 017.302 2.954.17.17 0 01.003.242l-2.511 2.51a.169.169 0 01-.235.004A6.59 6.59 0 0010.5 3.887a6.593 6.593 0 00-6.612 6.567 6.613 6.613 0 0012.934 1.99H10.67a.169.169 0 01-.169-.17V8.726a.17.17 0 01.17-.169H20.83z" fill="#2196F3"/><path d="M20.831 8.556h-1.268a.17.17 0 01.17.17V10.5c0 .664-.062 1.314-.18 1.944-.874 4.668-4.838 8.249-9.687 8.537.185.011.372.017.56.019 5.168.035 9.479-3.663 10.394-8.556.118-.63.18-1.28.18-1.944V8.725a.169.169 0 00-.169-.169z" fill="#1E88E5"/><path d="M4.494 7.73l-3.19-2.303A10.497 10.497 0 0110.5 0c2.837 0 5.411 1.126 7.301 2.954a.17.17 0 01.003.242l-2.51 2.51a.168.168 0 01-.235.004A6.613 6.613 0 004.494 7.73z" fill="#F44336"/><path d="M3.573 7.066l.92.665a6.616 6.616 0 015.32-3.807c.017-.002.034-.005.052-.006a6.593 6.593 0 00-6.292 3.148zm12.961-4.112a.17.17 0 01.003.242l-2.038 2.038c.195.148.382.307.56.476.066.063.17.061.235-.004l2.51-2.51a.17.17 0 00-.003-.242A10.468 10.468 0 009.866.02a10.466 10.466 0 016.668 2.934z" fill="#E53935"/><path d="M18.203 17.636A10.47 10.47 0 0110.5 21c-4.11 0-7.67-2.362-9.393-5.804l3.255-2.23a6.615 6.615 0 0010.652 2.366l3.189 2.304z" fill="#4CAF50"/><path d="M4.362 12.965l-.96.658a6.612 6.612 0 006.463 3.46 6.618 6.618 0 01-5.503-4.118zM10.5 21a10.47 10.47 0 007.702-3.364l-.78-.564a10.481 10.481 0 01-7.554 3.909c.209.012.42.019.632.019z" fill="#43A047"/><path d="M3.887 10.5a6.6 6.6 0 00.475 2.465l-3.255 2.23A10.451 10.451 0 010 10.5c0-1.84.473-3.57 1.305-5.073L4.494 7.73a6.585 6.585 0 00-.607 2.769z" fill="#FFC107"/><path d="M3.402 13.623l.96-.658a6.593 6.593 0 01-.475-2.465c0-.989.217-1.927.607-2.77l-.921-.665a6.604 6.604 0 00-.953 3.389 6.584 6.584 0 00.782 3.169z" fill="#FFB300"/></g><defs><clipPath id="clip0"><path fill="#fff" d="M0 0h21v21H0z"/></clipPath></defs></svg>